<svg width="32" height="30" viewBox="0 0 32 30" fill="none" xmlns="http://www.w3.org/2000/svg">
<path d="M25.3333 0.333008H6.66667C2.99067 0.333008 0 3.32367 0 6.99967V17.6663C0 21.3423 2.99067 24.333 6.66667 24.333H14.6667V26.9997H9.33333C8.59733 26.9997 8 27.597 8 28.333C8 29.069 8.59733 29.6663 9.33333 29.6663H22.6667C23.4027 29.6663 24 29.069 24 28.333C24 27.597 23.4027 26.9997 22.6667 26.9997H17.3333V24.333H25.3333C29.0093 24.333 32 21.3423 32 17.6663V6.99967C32 3.32367 29.0093 0.333008 25.3333 0.333008ZM26.6667 13.637C26.6667 14.373 26.0693 14.9703 25.3333 14.9703C24.5973 14.9703 24 14.373 24 13.637V11.553L19.328 16.225C18.1533 17.401 16.104 17.401 14.9293 16.225L12.4467 13.7423C12.2733 13.569 11.992 13.569 11.8187 13.7423L7.61333 17.9477C7.35333 18.2077 7.012 18.3383 6.67067 18.3383C6.32933 18.3383 5.988 18.2077 5.728 17.9477C5.20667 17.4263 5.20667 16.5837 5.728 16.0623L9.93333 11.857C11.1453 10.6437 13.12 10.6437 14.332 11.857L16.8147 14.3397C17.0413 14.5663 17.216 14.5663 17.4427 14.3397L22.1147 9.66768H20C19.264 9.66768 18.6667 9.07034 18.6667 8.33434C18.6667 7.59834 19.264 7.00101 20 7.00101H24.6667C25.7693 7.00101 26.6667 7.89834 26.6667 9.00101V13.6383V13.637Z" fill="#B3B3B3"/>
</svg>
