<svg width="28" height="28" viewBox="0 0 28 28" fill="none" xmlns="http://www.w3.org/2000/svg">
<g clip-path="url(#clip0_259_6482)">
<path d="M28 14C28 11.2311 27.1789 8.5243 25.6406 6.22202C24.1022 3.91973 21.9157 2.12531 19.3576 1.06568C16.7994 0.00605867 13.9845 -0.27119 11.2687 0.269003C8.553 0.809197 6.05844 2.14257 4.10051 4.1005C2.14257 6.05844 0.8092 8.553 0.269006 11.2687C-0.271188 13.9845 0.00606063 16.7994 1.06569 19.3576C2.12531 21.9157 3.91973 24.1022 6.22202 25.6406C8.5243 27.1789 11.2311 28 14 28C17.7118 27.996 21.2704 26.5197 23.8951 23.8951C26.5197 21.2704 27.996 17.7118 28 14ZM2.33333 14C2.33333 11.6925 3.01757 9.43692 4.29952 7.51834C5.58147 5.59977 7.40356 4.10442 9.53536 3.2214C11.6672 2.33838 14.0129 2.10734 16.2761 2.5575C18.5392 3.00766 20.618 4.11881 22.2496 5.75042C23.8812 7.38203 24.9923 9.46083 25.4425 11.7239C25.8927 13.9871 25.6616 16.3328 24.7786 18.4646C23.8956 20.5964 22.4002 22.4185 20.4817 23.7005C18.5631 24.9824 16.3074 25.6667 14 25.6667C10.9068 25.6633 7.94136 24.433 5.75417 22.2458C3.56698 20.0586 2.33673 17.0931 2.33333 14Z" fill="#00314C"/>
<path d="M9.33347 13.9998C9.3326 13.1458 9.64472 12.3211 10.2108 11.6817C10.5503 11.3002 10.8805 10.9385 11.1173 10.7017L14.412 7.34982C14.5175 7.23331 14.6454 7.13932 14.7881 7.07348C14.9309 7.00765 15.0854 6.97133 15.2425 6.96671C15.3996 6.96209 15.5561 6.98926 15.7024 7.0466C15.8487 7.10393 15.982 7.19024 16.0941 7.30036C16.2063 7.41047 16.2951 7.54211 16.3551 7.68738C16.4151 7.83264 16.4451 7.98854 16.4434 8.1457C16.4417 8.30287 16.4082 8.45806 16.345 8.60197C16.2818 8.74588 16.1902 8.87554 16.0756 8.98316L12.7751 12.3432C12.557 12.5625 12.2606 12.8892 11.9585 13.2287C11.7705 13.4418 11.6667 13.7162 11.6667 14.0004C11.6667 14.2846 11.7705 14.559 11.9585 14.7722C12.2595 15.1105 12.5558 15.4372 12.767 15.6495L16.0756 19.0165C16.1902 19.1241 16.2818 19.2538 16.345 19.3977C16.4082 19.5416 16.4417 19.6968 16.4434 19.8539C16.4451 20.0111 16.4151 20.167 16.3551 20.3123C16.2951 20.4575 16.2063 20.5892 16.0941 20.6993C15.982 20.8094 15.8487 20.8957 15.7024 20.9531C15.556 21.0104 15.3996 21.0376 15.2425 21.0329C15.0854 21.0283 14.9309 20.992 14.7881 20.9262C14.6454 20.8603 14.5175 20.7663 14.412 20.6498L11.1115 17.291C10.8781 17.0577 10.5515 16.6995 10.2143 16.3192C9.6464 15.6801 9.33295 14.8548 9.33347 13.9998Z" fill="#00314C"/>
</g>
<defs>
<clipPath id="clip0_259_6482">
<rect width="28" height="28" fill="white" transform="translate(28) rotate(90)"/>
</clipPath>
</defs>
</svg>
