<svg width="38" height="38" viewBox="0 0 38 38" fill="none" xmlns="http://www.w3.org/2000/svg">
<g filter="url(#filter0_i_606_4247)">
<circle cx="19" cy="19" r="19" fill="#FF594C"/>
</g>
<circle cx="19" cy="19" r="18.525" stroke="#F5F5F5" stroke-width="0.95"/>
<g clip-path="url(#clip0_606_4247)">
<path d="M8 19C8 25.0656 12.9344 30 19 30C25.0656 30 30 25.0656 30 19C30 12.9344 25.0656 8 19 8C12.9344 8 8 12.9344 8 19ZM12.5833 16.1492C12.5833 15.392 12.8565 14.633 13.434 14.0564L14.9071 12.5833L17.8074 15.4837L15.909 17.3821C16.8523 19.7297 18.45 21.2633 20.6179 22.091L22.5163 20.1926L25.4167 23.0929L23.9436 24.566C23.367 25.1435 22.608 25.4167 21.8508 25.4167C17.9642 25.4167 12.5833 20.3347 12.5833 16.1492Z" fill="white"/>
</g>
<defs>
<filter id="filter0_i_606_4247" x="0" y="-6" width="38" height="44" filterUnits="userSpaceOnUse" color-interpolation-filters="sRGB">
<feFlood flood-opacity="0" result="BackgroundImageFix"/>
<feBlend mode="normal" in="SourceGraphic" in2="BackgroundImageFix" result="shape"/>
<feColorMatrix in="SourceAlpha" type="matrix" values="0 0 0 0 0 0 0 0 0 0 0 0 0 0 0 0 0 0 127 0" result="hardAlpha"/>
<feOffset dy="-6"/>
<feGaussianBlur stdDeviation="3"/>
<feComposite in2="hardAlpha" operator="arithmetic" k2="-1" k3="1"/>
<feColorMatrix type="matrix" values="0 0 0 0 0 0 0 0 0 0 0 0 0 0 0 0 0 0 0.12 0"/>
<feBlend mode="normal" in2="shape" result="effect1_innerShadow_606_4247"/>
</filter>
<clipPath id="clip0_606_4247">
<rect width="22" height="22" fill="white" transform="translate(8 8)"/>
</clipPath>
</defs>
</svg>
