<svg width="40" height="40" viewBox="0 0 40 40" fill="none" xmlns="http://www.w3.org/2000/svg">
<g clip-path="url(#clip0_262_6794)">
<path d="M31.6667 6.66667H30.82L27.18 1.94667C26.7109 1.34301 26.1105 0.854028 25.4244 0.516757C24.7384 0.179486 23.9845 0.00277174 23.22 0L16.78 0C16.0155 0.00277174 15.2616 0.179486 14.5756 0.516757C13.8895 0.854028 13.2891 1.34301 12.82 1.94667L9.18 6.66667H8.33333C6.12401 6.66931 4.00593 7.54814 2.4437 9.11037C0.88147 10.6726 0.00264643 12.7907 0 15L0 31.6667C0.00264643 33.876 0.88147 35.9941 2.4437 37.5563C4.00593 39.1185 6.12401 39.9974 8.33333 40H31.6667C33.876 39.9974 35.9941 39.1185 37.5563 37.5563C39.1185 35.9941 39.9974 33.876 40 31.6667V15C39.9974 12.7907 39.1185 10.6726 37.5563 9.11037C35.9941 7.54814 33.876 6.66931 31.6667 6.66667ZM15.46 3.98333C15.6161 3.78176 15.8162 3.61844 16.0449 3.5058C16.2736 3.39317 16.525 3.33418 16.78 3.33333H23.22C23.4749 3.33443 23.7262 3.39352 23.9549 3.50614C24.1836 3.61876 24.3837 3.78194 24.54 3.98333L26.61 6.66667H13.39L15.46 3.98333ZM36.6667 31.6667C36.6667 32.9927 36.1399 34.2645 35.2022 35.2022C34.2645 36.1399 32.9927 36.6667 31.6667 36.6667H8.33333C7.00725 36.6667 5.73548 36.1399 4.7978 35.2022C3.86012 34.2645 3.33333 32.9927 3.33333 31.6667V15C3.33333 13.6739 3.86012 12.4021 4.7978 11.4645C5.73548 10.5268 7.00725 10 8.33333 10H31.6667C32.9927 10 34.2645 10.5268 35.2022 11.4645C36.1399 12.4021 36.6667 13.6739 36.6667 15V31.6667Z" fill="white"/>
<path d="M19.9999 13.333C18.0221 13.333 16.0887 13.9195 14.4442 15.0183C12.7997 16.1171 11.518 17.6789 10.7611 19.5062C10.0042 21.3334 9.80618 23.3441 10.192 25.2839C10.5779 27.2237 11.5303 29.0056 12.9288 30.4041C14.3273 31.8026 16.1092 32.755 18.049 33.1409C19.9888 33.5267 21.9995 33.3287 23.8267 32.5718C25.654 31.8149 27.2158 30.5332 28.3146 28.8887C29.4134 27.2442 29.9999 25.3108 29.9999 23.333C29.9972 20.6817 28.9428 18.1397 27.068 16.2649C25.1932 14.3901 22.6512 13.3357 19.9999 13.333ZM19.9999 29.9997C18.6813 29.9997 17.3924 29.6087 16.2961 28.8761C15.1998 28.1436 14.3453 27.1024 13.8407 25.8842C13.3361 24.6661 13.2041 23.3256 13.4613 22.0324C13.7185 20.7392 14.3535 19.5513 15.2858 18.619C16.2182 17.6866 17.4061 17.0517 18.6993 16.7944C19.9925 16.5372 21.3329 16.6692 22.5511 17.1738C23.7693 17.6784 24.8105 18.5329 25.543 19.6292C26.2756 20.7255 26.6666 22.0145 26.6666 23.333C26.6666 25.1011 25.9642 26.7968 24.7139 28.0471C23.4637 29.2973 21.768 29.9997 19.9999 29.9997Z" fill="white"/>
</g>
<defs>
<clipPath id="clip0_262_6794">
<rect width="40" height="40" fill="white"/>
</clipPath>
</defs>
</svg>
