<svg width="12" height="12" viewBox="0 0 12 12" fill="none" xmlns="http://www.w3.org/2000/svg">
<g clip-path="url(#clip0_295_1824)">
<path d="M0 6C0 9.3085 2.6915 12 6 12C9.3085 12 12 9.3085 12 6C12 2.6915 9.3085 0 6 0C2.6915 0 0 2.6915 0 6ZM2.5 4.445C2.5 4.032 2.649 3.618 2.964 3.3035L3.7675 2.5L5.3495 4.082L4.314 5.1175C4.8285 6.398 5.7 7.2345 6.8825 7.686L7.918 6.6505L9.5 8.2325L8.6965 9.036C8.382 9.351 7.968 9.5 7.555 9.5C5.435 9.5 2.5 6.728 2.5 4.445Z" fill="#FF594C"/>
</g>
<defs>
<clipPath id="clip0_295_1824">
<rect width="12" height="12" fill="white"/>
</clipPath>
</defs>
</svg>
