<svg width="22" height="22" viewBox="0 0 22 22" fill="none" xmlns="http://www.w3.org/2000/svg">
<g clip-path="url(#clip0_263_21174)">
<path d="M11 0C8.82441 0 6.69767 0.645139 4.88873 1.85383C3.07979 3.06253 1.66989 4.7805 0.83733 6.79048C0.00476615 8.80047 -0.213071 11.0122 0.211367 13.146C0.635804 15.2798 1.68345 17.2398 3.22183 18.7782C4.76021 20.3166 6.72022 21.3642 8.85401 21.7886C10.9878 22.2131 13.1995 21.9952 15.2095 21.1627C17.2195 20.3301 18.9375 18.9202 20.1462 17.1113C21.3549 15.3023 22 13.1756 22 11C21.9968 8.08359 20.8369 5.28753 18.7747 3.22531C16.7125 1.16309 13.9164 0.00315432 11 0ZM11 14.6667C10.329 14.6674 9.681 14.4221 9.17859 13.9773C8.87884 13.7106 8.59467 13.4512 8.40859 13.2651L5.775 10.6764C5.61293 10.5039 5.52387 10.2754 5.52648 10.0387C5.52908 9.802 5.62314 9.57549 5.78897 9.40658C5.9548 9.23767 6.17954 9.13946 6.41614 9.1325C6.65275 9.12554 6.88287 9.21038 7.05834 9.36925L9.69834 11.9625C9.87067 12.1339 10.1273 12.3668 10.3941 12.6042C10.5615 12.7519 10.7772 12.8334 11.0005 12.8334C11.2238 12.8334 11.4394 12.7519 11.6068 12.6042C11.8727 12.3677 12.1293 12.1348 12.2962 11.9689L14.9417 9.36925C15.0262 9.27924 15.1281 9.20725 15.2412 9.1576C15.3542 9.10794 15.4762 9.08165 15.5997 9.08029C15.7232 9.07893 15.8456 9.10254 15.9598 9.14969C16.0739 9.19685 16.1774 9.26658 16.2639 9.35471C16.3504 9.44283 16.4182 9.54753 16.4633 9.66251C16.5083 9.7775 16.5297 9.9004 16.526 10.0238C16.5224 10.1473 16.4939 10.2687 16.4421 10.3809C16.3904 10.493 16.3166 10.5935 16.225 10.6764L13.5859 13.2697C13.4026 13.453 13.1212 13.7097 12.8223 13.9746C12.3202 14.4208 11.6717 14.6671 11 14.6667Z" fill="#FF594C"/>
</g>
<defs>
<clipPath id="clip0_263_21174">
<rect width="22" height="22" fill="white"/>
</clipPath>
</defs>
</svg>
