<svg width="28" height="28" viewBox="0 0 28 28" fill="none" xmlns="http://www.w3.org/2000/svg">
<g clip-path="url(#clip0_550_679)">
<path d="M14 0C6.28017 0 0 6.28017 0 14C0 21.7198 6.28017 28 14 28C21.7198 28 28 21.7198 28 14C28 6.28017 21.7198 0 14 0ZM14 25.6667C7.567 25.6667 2.33333 20.433 2.33333 14C2.33333 7.567 7.567 2.33333 14 2.33333C20.433 2.33333 25.6667 7.567 25.6667 14C25.6667 20.433 20.433 25.6667 14 25.6667ZM15.6088 7.44217L8.70917 14.3418C7.60783 15.4432 7 16.9085 7 18.466V19.8333C7 20.4785 7.5215 21 8.16667 21H9.534C11.0915 21 12.5568 20.3922 13.6582 19.2908L20.5578 12.3912C21.9228 11.0262 21.9228 8.80717 20.5578 7.44217C19.1928 6.07717 16.9738 6.07717 15.6088 7.44217ZM12.0085 17.6412C11.3563 18.2933 10.4545 18.6667 9.534 18.6667H9.33333V18.466C9.33333 17.5455 9.70667 16.6437 10.3588 15.9915L14.392 11.9583L16.0417 13.608L12.0085 17.6412ZM18.9082 10.7415L17.6913 11.9583L16.0417 10.3087L17.2585 9.09183C17.7147 8.63567 18.452 8.63567 18.9082 9.09183C19.3643 9.548 19.3632 10.2865 18.9082 10.7415Z" fill="#160302"/>
</g>
<defs>
<clipPath id="clip0_550_679">
<rect width="28" height="28" fill="white"/>
</clipPath>
</defs>
</svg>
