<svg width="38" height="38" viewBox="0 0 38 38" fill="none" xmlns="http://www.w3.org/2000/svg">
<g filter="url(#filter0_i_606_4259)">
<circle cx="19" cy="19" r="19" fill="#FF594C"/>
</g>
<circle cx="19" cy="19" r="18.525" stroke="#F5F5F5" stroke-width="0.95"/>
<g clip-path="url(#clip0_606_4259)">
<path d="M27.6683 14.8564L21.8107 20.7141C21.1576 21.3656 20.2727 21.7315 19.3502 21.7315C18.4277 21.7315 17.5428 21.3656 16.8897 20.7141L11.032 14.8564C11.0223 14.9664 11 15.0659 11 15.1751V23.5253C11.0011 24.4477 11.368 25.332 12.0203 25.9843C12.6725 26.6365 13.5568 27.0035 14.4792 27.0046H24.2211C25.1435 27.0035 26.0278 26.6365 26.6801 25.9843C27.3323 25.332 27.6993 24.4477 27.7004 23.5253V15.1751C27.7004 15.0659 27.6781 14.9664 27.6683 14.8564Z" fill="white"/>
<path d="M20.8266 19.7306L27.1825 13.374C26.8746 12.8634 26.4404 12.4409 25.9216 12.147C25.4029 11.8531 24.8172 11.6979 24.221 11.6963H14.4791C13.8829 11.6979 13.2972 11.8531 12.7785 12.147C12.2597 12.4409 11.8255 12.8634 11.5176 13.374L17.8735 19.7306C18.2656 20.1211 18.7966 20.3404 19.35 20.3404C19.9035 20.3404 20.4345 20.1211 20.8266 19.7306Z" fill="white"/>
</g>
<defs>
<filter id="filter0_i_606_4259" x="0" y="-6" width="38" height="44" filterUnits="userSpaceOnUse" color-interpolation-filters="sRGB">
<feFlood flood-opacity="0" result="BackgroundImageFix"/>
<feBlend mode="normal" in="SourceGraphic" in2="BackgroundImageFix" result="shape"/>
<feColorMatrix in="SourceAlpha" type="matrix" values="0 0 0 0 0 0 0 0 0 0 0 0 0 0 0 0 0 0 127 0" result="hardAlpha"/>
<feOffset dy="-6"/>
<feGaussianBlur stdDeviation="3"/>
<feComposite in2="hardAlpha" operator="arithmetic" k2="-1" k3="1"/>
<feColorMatrix type="matrix" values="0 0 0 0 0 0 0 0 0 0 0 0 0 0 0 0 0 0 0.12 0"/>
<feBlend mode="normal" in2="shape" result="effect1_innerShadow_606_4259"/>
</filter>
<clipPath id="clip0_606_4259">
<rect width="16.7004" height="16.7004" fill="white" transform="translate(11 11)"/>
</clipPath>
</defs>
</svg>
