<svg width="29" height="29" viewBox="0 0 29 29" fill="none" xmlns="http://www.w3.org/2000/svg">
<g clip-path="url(#clip0_606_1955)">
<path d="M26.5837 13.3883V14.4999C26.5822 17.1056 25.7384 19.641 24.1783 21.728C22.6181 23.8149 20.4251 25.3417 17.9264 26.0805C15.4276 26.8193 12.757 26.7305 10.3128 25.8275C7.86861 24.9245 5.78178 23.2556 4.36357 21.0697C2.94536 18.8838 2.27174 16.298 2.44318 13.698C2.61463 11.0979 3.62195 8.62298 5.31491 6.64221C7.00788 4.66145 9.29577 3.281 11.8374 2.70676C14.379 2.13252 17.0382 2.39524 19.4182 3.45575M26.5837 4.83325L14.5003 16.9287L10.8753 13.3037" stroke="#477A26" stroke-width="4" stroke-linecap="round" stroke-linejoin="round"/>
</g>
<defs>
<clipPath id="clip0_606_1955">
<rect width="29" height="29" fill="white"/>
</clipPath>
</defs>
</svg>
