<svg width="32" height="32" viewBox="0 0 32 32" fill="none" xmlns="http://www.w3.org/2000/svg">
<g clip-path="url(#clip0_263_9211)">
<path d="M16 18.667C14.9391 18.667 13.9217 19.0884 13.1716 19.8386C12.4214 20.5887 12 21.6061 12 22.667V32.035H20V22.667C20 21.6061 19.5786 20.5887 18.8284 19.8386C18.0783 19.0884 17.0609 18.667 16 18.667Z" fill="#B3B3B3"/>
<path d="M17.784 1.11041C17.2943 0.669663 16.6588 0.425781 16 0.425781C15.3412 0.425781 14.7057 0.669663 14.216 1.11041L0 13.9051V27.7717C0 28.9033 0.449522 29.9886 1.24968 30.7887C2.04983 31.5889 3.13508 32.0384 4.26667 32.0384H9.33333V22.6664C9.33333 20.8983 10.0357 19.2026 11.286 17.9524C12.5362 16.7021 14.2319 15.9997 16 15.9997C17.7681 15.9997 19.4638 16.7021 20.714 17.9524C21.9643 19.2026 22.6667 20.8983 22.6667 22.6664V32.0344H27.7333C28.8649 32.0344 29.9502 31.5849 30.7503 30.7847C31.5505 29.9846 32 28.8993 32 27.7677V13.9011L17.784 1.11041Z" fill="#B3B3B3"/>
</g>
<defs>
<clipPath id="clip0_263_9211">
<rect width="32" height="32" fill="white"/>
</clipPath>
</defs>
</svg>
