<svg width="32" height="32" viewBox="0 0 32 32" fill="none" xmlns="http://www.w3.org/2000/svg">
<g clip-path="url(#clip0_259_5713)">
<path d="M16 32C19.1645 32 22.2579 31.0616 24.8891 29.3035C27.5203 27.5454 29.5711 25.0466 30.7821 22.1229C31.9931 19.1993 32.3099 15.9823 31.6926 12.8786C31.0752 9.77487 29.5514 6.92394 27.3137 4.6863C25.0761 2.44866 22.2251 0.924806 19.1214 0.307443C16.0177 -0.309921 12.8007 0.00693258 9.87707 1.21793C6.95345 2.42894 4.45459 4.4797 2.69649 7.11088C0.938384 9.74207 0 12.8355 0 16C0.00458811 20.2421 1.69177 24.3091 4.69136 27.3087C7.69095 30.3082 11.7579 31.9954 16 32ZM16 6.66667C16.3956 6.66667 16.7822 6.78397 17.1111 7.00373C17.44 7.2235 17.6964 7.53585 17.8478 7.90131C17.9991 8.26676 18.0387 8.66889 17.9616 9.05685C17.8844 9.44482 17.6939 9.80118 17.4142 10.0809C17.1345 10.3606 16.7781 10.5511 16.3902 10.6282C16.0022 10.7054 15.6001 10.6658 15.2346 10.5144C14.8692 10.3631 14.5568 10.1067 14.3371 9.77781C14.1173 9.44892 14 9.06224 14 8.66667C14 8.13624 14.2107 7.62753 14.5858 7.25246C14.9609 6.87739 15.4696 6.66667 16 6.66667ZM14.6667 13.3333H16C16.7072 13.3333 17.3855 13.6143 17.8856 14.1144C18.3857 14.6145 18.6667 15.2928 18.6667 16V24C18.6667 24.3536 18.5262 24.6928 18.2761 24.9428C18.0261 25.1929 17.687 25.3333 17.3333 25.3333C16.9797 25.3333 16.6406 25.1929 16.3905 24.9428C16.1405 24.6928 16 24.3536 16 24V16H14.6667C14.313 16 13.9739 15.8595 13.7239 15.6095C13.4738 15.3594 13.3333 15.0203 13.3333 14.6667C13.3333 14.3131 13.4738 13.9739 13.7239 13.7239C13.9739 13.4738 14.313 13.3333 14.6667 13.3333Z" fill="#B3B3B3"/>
</g>
<defs>
<clipPath id="clip0_259_5713">
<rect width="32" height="32" fill="white"/>
</clipPath>
</defs>
</svg>
