<svg width="20" height="20" viewBox="0 0 20 20" fill="none" xmlns="http://www.w3.org/2000/svg">
<g clip-path="url(#clip0_259_5260)">
<path d="M14.1242 1.70833C13.0233 0.606667 11.5583 0 10 0C8.44168 0 6.97668 0.606667 5.87501 1.70833C3.60085 3.9825 3.60085 7.68333 5.88168 9.96417L7.96085 11.9975C8.52335 12.5475 9.26168 12.8225 10 12.8225C10.7383 12.8225 11.4767 12.5475 12.0392 11.9975L14.1242 9.9575C15.2258 8.85583 15.8333 7.39083 15.8333 5.8325C15.8333 4.27417 15.2258 2.81083 14.1242 1.70833ZM10 8.325C8.61918 8.325 7.50001 7.20583 7.50001 5.825C7.50001 4.44417 8.61918 3.325 10 3.325C11.3808 3.325 12.5 4.44417 12.5 5.825C12.5 7.20583 11.3808 8.325 10 8.325ZM20 13.9683C20.0017 14.2633 19.8475 14.5367 19.5958 14.6875L11.3783 19.6183C10.9533 19.8733 10.4767 20.0008 10.0008 20.0008C9.52501 20.0008 9.04751 19.8733 8.62335 19.6183L0.40418 14.6875C0.15168 14.5358 -0.00165322 14.2625 1.34495e-05 13.9683C0.00168012 13.6742 0.158347 13.4025 0.412513 13.2542L4.45835 10.8858C4.54168 10.9775 4.62751 11.0683 4.71585 11.1567L6.79501 13.1892C7.65168 14.0275 8.79085 14.49 10 14.49C11.2092 14.49 12.3475 14.0275 13.205 13.1892L15.3033 11.1367C15.385 11.055 15.465 10.9708 15.5425 10.8858L19.5875 13.2533C19.8417 13.4025 19.9983 13.675 20 13.9683Z" fill="#FF594C"/>
</g>
<defs>
<clipPath id="clip0_259_5260">
<rect width="20" height="20" fill="white"/>
</clipPath>
</defs>
</svg>
