<svg width="50" height="50" viewBox="0 0 50 50" fill="none" xmlns="http://www.w3.org/2000/svg">
<g filter="url(#filter0_i_601_307)">
<circle cx="25.4237" cy="24.81" r="24.5761" fill="#FF594C"/>
</g>
<circle cx="25.4237" cy="24.81" r="23.9617" stroke="#F5F5F5" stroke-width="1.2288"/>
<path d="M25.1025 13.2888C26.0179 13.0741 26.6958 13.3664 27.1895 13.8337C27.6853 14.3032 27.9961 14.9497 28.167 15.4402C28.9526 17.6958 28.7339 20.2797 27.5947 22.3777L27.5459 22.4685L27.6475 22.447C30.3749 21.8733 31.824 21.739 34.3828 21.739C34.8167 21.739 35.2784 21.781 35.6904 21.9119C36.1023 22.0427 36.4616 22.2613 36.6953 22.613C37.0137 23.0929 37.0031 23.7479 36.7568 24.2771C36.5307 24.763 36.131 25.1514 35.6777 25.4519L35.6064 25.4998L35.6846 25.5349C35.9633 25.6635 36.2024 25.8466 36.374 26.1052C36.6927 26.5849 36.682 27.2401 36.4355 27.7693C36.2095 28.2548 35.8096 28.6428 35.3564 28.9431L35.2852 28.991L35.3633 29.0271C35.6419 29.1557 35.8812 29.338 36.0527 29.5964C36.3713 30.0761 36.3605 30.7313 36.1143 31.2605C35.8984 31.7236 35.5251 32.0988 35.0977 32.3933L35.0244 32.4441L35.1074 32.4773C35.382 32.5872 35.6181 32.7512 35.7812 32.9968C36.0484 33.3994 36.0289 33.9456 35.832 34.3982C35.3718 35.456 33.8786 36.4255 30.4805 36.4255H24.9434C23.7256 36.4255 22.4056 35.9748 21.3447 35.1189C20.893 34.7544 20.6299 34.2052 20.6299 33.6248V24.1931C20.6299 23.6543 20.86 23.143 21.2559 22.7761C22.5154 21.6093 23.3948 19.7139 23.8672 18.1423C24.2047 17.0198 24.0529 15.8944 24.0527 15.0144C24.0527 14.5713 24.0912 14.193 24.2402 13.8992C24.3874 13.6092 24.646 13.396 25.1025 13.2888Z" fill="white" stroke="#F5F5F5" stroke-width="0.095997"/>
<path d="M14.8643 22.8075H18.4814C19.0526 22.8075 19.5164 23.2706 19.5166 23.8417V34.3973C19.5166 34.9687 19.0527 35.4315 18.4814 35.4315H14.8643C14.2932 35.4313 13.8301 34.9685 13.8301 34.3973V23.8417C13.8303 23.2707 14.2933 22.8077 14.8643 22.8075Z" fill="white" stroke="#F5F5F5" stroke-width="0.095997"/>
<defs>
<filter id="filter0_i_601_307" x="0.847656" y="-7.52698" width="49.1523" height="56.9131" filterUnits="userSpaceOnUse" color-interpolation-filters="sRGB">
<feFlood flood-opacity="0" result="BackgroundImageFix"/>
<feBlend mode="normal" in="SourceGraphic" in2="BackgroundImageFix" result="shape"/>
<feColorMatrix in="SourceAlpha" type="matrix" values="0 0 0 0 0 0 0 0 0 0 0 0 0 0 0 0 0 0 127 0" result="hardAlpha"/>
<feOffset dy="-7.76087"/>
<feGaussianBlur stdDeviation="3.88044"/>
<feComposite in2="hardAlpha" operator="arithmetic" k2="-1" k3="1"/>
<feColorMatrix type="matrix" values="0 0 0 0 0 0 0 0 0 0 0 0 0 0 0 0 0 0 0.12 0"/>
<feBlend mode="normal" in2="shape" result="effect1_innerShadow_601_307"/>
</filter>
</defs>
</svg>
