<svg width="16" height="16" viewBox="0 0 16 16" fill="none" xmlns="http://www.w3.org/2000/svg">
<path d="M7.99998 0C6.23247 0.00194106 4.5379 0.704943 3.28808 1.95477C2.03826 3.20459 1.33525 4.89915 1.33331 6.66667C1.33331 10.188 6.93331 15.022 7.56931 15.562L7.99998 15.926L8.43065 15.562C9.06665 15.022 14.6666 10.188 14.6666 6.66667C14.6647 4.89915 13.9617 3.20459 12.7119 1.95477C11.4621 0.704943 9.76749 0.00194106 7.99998 0ZM7.99998 10C7.34071 10 6.69624 9.8045 6.14808 9.43823C5.59992 9.07196 5.17267 8.55136 4.92038 7.94228C4.66809 7.33319 4.60208 6.66297 4.7307 6.01637C4.85931 5.36976 5.17678 4.77582 5.64296 4.30964C6.10913 3.84347 6.70307 3.526 7.34968 3.39738C7.99628 3.26876 8.6665 3.33478 9.27559 3.58707C9.88468 3.83936 10.4053 4.2666 10.7715 4.81477C11.1378 5.36293 11.3333 6.0074 11.3333 6.66667C11.3323 7.5504 10.9807 8.39763 10.3558 9.02252C9.73094 9.64741 8.88371 9.99894 7.99998 10Z" fill="#FF594C"/>
<path d="M8 8.6665C9.10457 8.6665 10 7.77107 10 6.6665C10 5.56193 9.10457 4.6665 8 4.6665C6.89543 4.6665 6 5.56193 6 6.6665C6 7.77107 6.89543 8.6665 8 8.6665Z" fill="#FF594C"/>
</svg>
