<svg width="16" height="16" viewBox="0 0 16 16" fill="none" xmlns="http://www.w3.org/2000/svg">
<path d="M10 4C10 6.206 8.206 8 6 8C3.794 8 2 6.206 2 4C2 1.794 3.794 0 6 0C8.206 0 10 1.794 10 4ZM11.3333 14.6667H10.6667C10.2987 14.6667 10 14.3673 10 14V10C10 9.63267 10.2987 9.33333 10.6667 9.33333H11.3333C11.702 9.33333 12 9.03467 12 8.66667C12 8.29867 11.702 8 11.3333 8H10.6667C9.564 8 8.66667 8.89733 8.66667 10V14C8.66667 15.1027 9.564 16 10.6667 16H11.3333C11.702 16 12 15.7013 12 15.3333C12 14.9653 11.702 14.6667 11.3333 14.6667ZM15.6027 11.17L14.1313 9.87267C13.8573 9.63067 13.434 9.65533 13.1907 9.932C12.9473 10.208 12.974 10.6293 13.25 10.8727L13.772 11.3333H12C11.6313 11.3333 11.3333 11.632 11.3333 12C11.3333 12.368 11.6313 12.6667 12 12.6667H13.8613L13.25 13.206C12.974 13.4493 12.9473 13.8707 13.1907 14.1467C13.4347 14.424 13.8567 14.4487 14.1313 14.206L15.5973 12.9133C15.8533 12.6927 16 12.374 16 12.0393C16 11.7047 15.8533 11.386 15.6027 11.17ZM7.33333 10C7.33333 9.82933 7.35867 9.66467 7.384 9.50067C6.93867 9.39533 6.47733 9.33333 6 9.33333C2.69133 9.33333 0 12.0253 0 15.3333C0 15.7013 0.298 16 0.666667 16H8.01733C7.594 15.4413 7.33333 14.7533 7.33333 14V10Z" fill="#FF594C"/>
</svg>
