<svg width="28" height="28" viewBox="0 0 28 28" fill="none" xmlns="http://www.w3.org/2000/svg">
<g clip-path="url(#clip0_259_5205)">
<path d="M8.16667 0H4.66667C3.42899 0 2.24201 0.491665 1.36684 1.36684C0.491665 2.24201 0 3.42899 0 4.66667L0 8.16667C0 9.40435 0.491665 10.5913 1.36684 11.4665C2.24201 12.3417 3.42899 12.8333 4.66667 12.8333H8.16667C9.40435 12.8333 10.5913 12.3417 11.4665 11.4665C12.3417 10.5913 12.8333 9.40435 12.8333 8.16667V4.66667C12.8333 3.42899 12.3417 2.24201 11.4665 1.36684C10.5913 0.491665 9.40435 0 8.16667 0ZM10.5 8.16667C10.5 8.78551 10.2542 9.379 9.81658 9.81658C9.379 10.2542 8.78551 10.5 8.16667 10.5H4.66667C4.04783 10.5 3.45434 10.2542 3.01675 9.81658C2.57917 9.379 2.33333 8.78551 2.33333 8.16667V4.66667C2.33333 4.04783 2.57917 3.45434 3.01675 3.01675C3.45434 2.57917 4.04783 2.33333 4.66667 2.33333H8.16667C8.78551 2.33333 9.379 2.57917 9.81658 3.01675C10.2542 3.45434 10.5 4.04783 10.5 4.66667V8.16667Z" fill="#FF594C"/>
<path d="M23.3333 0H19.8333C18.5956 0 17.4087 0.491665 16.5335 1.36684C15.6583 2.24201 15.1667 3.42899 15.1667 4.66667V8.16667C15.1667 9.40435 15.6583 10.5913 16.5335 11.4665C17.4087 12.3417 18.5956 12.8333 19.8333 12.8333H23.3333C24.571 12.8333 25.758 12.3417 26.6332 11.4665C27.5083 10.5913 28 9.40435 28 8.16667V4.66667C28 3.42899 27.5083 2.24201 26.6332 1.36684C25.758 0.491665 24.571 0 23.3333 0ZM25.6667 8.16667C25.6667 8.78551 25.4208 9.379 24.9832 9.81658C24.5457 10.2542 23.9522 10.5 23.3333 10.5H19.8333C19.2145 10.5 18.621 10.2542 18.1834 9.81658C17.7458 9.379 17.5 8.78551 17.5 8.16667V4.66667C17.5 4.04783 17.7458 3.45434 18.1834 3.01675C18.621 2.57917 19.2145 2.33333 19.8333 2.33333H23.3333C23.9522 2.33333 24.5457 2.57917 24.9832 3.01675C25.4208 3.45434 25.6667 4.04783 25.6667 4.66667V8.16667Z" fill="#FF594C"/>
<path d="M8.16667 15.1666H4.66667C3.42899 15.1666 2.24201 15.6583 1.36684 16.5335C0.491665 17.4086 0 18.5956 0 19.8333L0 23.3333C0 24.571 0.491665 25.758 1.36684 26.6331C2.24201 27.5083 3.42899 28 4.66667 28H8.16667C9.40435 28 10.5913 27.5083 11.4665 26.6331C12.3417 25.758 12.8333 24.571 12.8333 23.3333V19.8333C12.8333 18.5956 12.3417 17.4086 11.4665 16.5335C10.5913 15.6583 9.40435 15.1666 8.16667 15.1666ZM10.5 23.3333C10.5 23.9521 10.2542 24.5456 9.81658 24.9832C9.379 25.4208 8.78551 25.6666 8.16667 25.6666H4.66667C4.04783 25.6666 3.45434 25.4208 3.01675 24.9832C2.57917 24.5456 2.33333 23.9521 2.33333 23.3333V19.8333C2.33333 19.2145 2.57917 18.621 3.01675 18.1834C3.45434 17.7458 4.04783 17.5 4.66667 17.5H8.16667C8.78551 17.5 9.379 17.7458 9.81658 18.1834C10.2542 18.621 10.5 19.2145 10.5 19.8333V23.3333Z" fill="#FF594C"/>
<path d="M23.3333 15.1666H19.8333C18.5956 15.1666 17.4087 15.6583 16.5335 16.5335C15.6583 17.4086 15.1667 18.5956 15.1667 19.8333V23.3333C15.1667 24.571 15.6583 25.758 16.5335 26.6331C17.4087 27.5083 18.5956 28 19.8333 28H23.3333C24.571 28 25.758 27.5083 26.6332 26.6331C27.5083 25.758 28 24.571 28 23.3333V19.8333C28 18.5956 27.5083 17.4086 26.6332 16.5335C25.758 15.6583 24.571 15.1666 23.3333 15.1666ZM25.6667 23.3333C25.6667 23.9521 25.4208 24.5456 24.9832 24.9832C24.5457 25.4208 23.9522 25.6666 23.3333 25.6666H19.8333C19.2145 25.6666 18.621 25.4208 18.1834 24.9832C17.7458 24.5456 17.5 23.9521 17.5 23.3333V19.8333C17.5 19.2145 17.7458 18.621 18.1834 18.1834C18.621 17.7458 19.2145 17.5 19.8333 17.5H23.3333C23.9522 17.5 24.5457 17.7458 24.9832 18.1834C25.4208 18.621 25.6667 19.2145 25.6667 19.8333V23.3333Z" fill="#FF594C"/>
</g>
<defs>
<clipPath id="clip0_259_5205">
<rect width="28" height="28" fill="white"/>
</clipPath>
</defs>
</svg>
