<svg width="10" height="10" viewBox="0 0 10 10" fill="none" xmlns="http://www.w3.org/2000/svg">
<g clip-path="url(#clip0_550_683)">
<path d="M8.30918 4.58776H7.08753C6.62696 4.58776 6.25393 4.21472 6.25393 3.75415V1.91772C5.64248 1.66806 4.94308 1.59053 4.21034 1.76309C2.95493 2.0586 1.96461 3.09644 1.7287 4.36435C1.33399 6.48713 2.95243 8.33898 5.00352 8.33898C6.84495 8.33898 8.33794 6.846 8.33794 5.00456C8.33794 4.86327 8.32627 4.72447 8.30918 4.58776ZM6.4369 6.33625L4.58713 5.18462V2.50333H5.42074V4.7228L6.87955 5.62935L6.4369 6.33625ZM10.0051 0.836535V2.92055C10.0051 3.38112 9.63211 3.75415 9.17154 3.75415H7.08753V2.92055H8.60303C7.7169 1.39047 5.96967 0.553526 4.14282 0.923647C2.4927 1.25792 1.18394 2.60961 0.898428 4.26932C0.447865 6.89059 2.46394 9.17259 5.0031 9.17259C5.16482 9.17259 5.32821 9.16342 5.48951 9.14466L5.58537 9.97243C5.39239 9.99494 5.1965 10.0062 5.0031 10.0062C1.96878 10.0062 -0.44326 7.28947 0.0714918 4.16054C0.396181 2.18656 1.91834 0.560612 3.87148 0.12797C5.99217 -0.341766 8.04868 0.544356 9.17154 2.24241V0.836118H10.0051V0.836535ZM6.92915 8.70202L7.3151 9.44101C7.04627 9.58147 6.76368 9.69734 6.47483 9.78612L6.22975 8.98919C6.46983 8.91542 6.70532 8.81914 6.92915 8.70202ZM9.17154 5.00456H10.0051C10.0051 5.30799 9.97764 5.61226 9.92346 5.90861L9.10361 5.75898C9.14862 5.51139 9.17154 5.25798 9.17154 5.00456ZM8.11787 7.77463L8.74057 8.32898C8.53925 8.5553 8.31585 8.76412 8.07785 8.9496L7.5656 8.29188C7.764 8.13767 7.9499 7.96344 8.11787 7.77463ZM8.90062 6.48588L9.67963 6.78306C9.57251 7.06398 9.4383 7.33866 9.28075 7.59874L8.5676 7.16652C8.69931 6.94936 8.81143 6.72054 8.90062 6.48588Z" fill="#854D0F"/>
</g>
<defs>
<clipPath id="clip0_550_683">
<rect width="10.0033" height="10.0033" fill="white" transform="translate(0.00195312 0.00195312)"/>
</clipPath>
</defs>
</svg>
