<svg width="32" height="32" viewBox="0 0 32 32" fill="none" xmlns="http://www.w3.org/2000/svg">
<g clip-path="url(#clip0_259_5689)">
<path d="M31.8987 24.1787L28.6133 5.51201C28.3438 3.967 27.5373 2.56681 26.3362 1.55837C25.135 0.549932 23.6163 -0.00196732 22.048 7.7002e-06H9.93466C8.36509 -0.0023787 6.84517 0.54999 5.64336 1.55955C4.44155 2.56911 3.63518 3.97091 3.36666 5.51734L0.101331 24.184C-0.0663544 25.1421 -0.0223637 26.1253 0.230217 27.0646C0.482797 28.0038 0.937848 28.8765 1.56344 29.6212C2.18904 30.366 2.97003 30.9649 3.85161 31.3758C4.73319 31.7867 5.69401 31.9998 6.66666 32H25.3333C26.3066 32.0001 27.2682 31.7871 28.1503 31.376C29.0325 30.9648 29.814 30.3655 30.4398 29.62C31.0657 28.8746 31.5207 28.0012 31.773 27.0612C32.0252 26.1211 32.0672 25.1373 31.8987 24.1787ZM17.3333 26.6667C17.3333 27.0203 17.1929 27.3594 16.9428 27.6095C16.6928 27.8595 16.3536 28 16 28C15.6464 28 15.3072 27.8595 15.0572 27.6095C14.8071 27.3594 14.6667 27.0203 14.6667 26.6667V24C14.6667 23.6464 14.8071 23.3072 15.0572 23.0572C15.3072 22.8071 15.6464 22.6667 16 22.6667C16.3536 22.6667 16.6928 22.8071 16.9428 23.0572C17.1929 23.3072 17.3333 23.6464 17.3333 24V26.6667ZM17.3333 17.3333C17.3333 17.687 17.1929 18.0261 16.9428 18.2761C16.6928 18.5262 16.3536 18.6667 16 18.6667C15.6464 18.6667 15.3072 18.5262 15.0572 18.2761C14.8071 18.0261 14.6667 17.687 14.6667 17.3333V14.6667C14.6667 14.3131 14.8071 13.9739 15.0572 13.7239C15.3072 13.4738 15.6464 13.3333 16 13.3333C16.3536 13.3333 16.6928 13.4738 16.9428 13.7239C17.1929 13.9739 17.3333 14.3131 17.3333 14.6667V17.3333ZM17.3333 8.00001C17.3333 8.35363 17.1929 8.69277 16.9428 8.94282C16.6928 9.19287 16.3536 9.33334 16 9.33334C15.6464 9.33334 15.3072 9.19287 15.0572 8.94282C14.8071 8.69277 14.6667 8.35363 14.6667 8.00001V5.33334C14.6667 4.97972 14.8071 4.64058 15.0572 4.39053C15.3072 4.14048 15.6464 4.00001 16 4.00001C16.3536 4.00001 16.6928 4.14048 16.9428 4.39053C17.1929 4.64058 17.3333 4.97972 17.3333 5.33334V8.00001Z" fill="white"/>
</g>
<defs>
<clipPath id="clip0_259_5689">
<rect width="32" height="32" fill="white"/>
</clipPath>
</defs>
</svg>
