<svg width="40" height="40" viewBox="0 0 40 40" fill="none" xmlns="http://www.w3.org/2000/svg">
<g clip-path="url(#clip0_606_526)">
<path d="M36.6035 21.4583C36.2821 25.258 34.6713 28.8337 32.0383 31.592C29.4053 34.3504 25.9084 36.1256 22.1277 36.6232C18.3471 37.1208 14.5099 36.3109 11.2528 34.3278C7.99577 32.3448 5.51459 29.3077 4.22094 25.7206C2.9273 22.1335 2.89894 18.2119 4.14058 14.6064C5.38222 11.0009 7.81923 7.92832 11.0473 5.89835C14.2753 3.86838 18.1004 3.00307 21.8878 3.44597C25.6753 3.88887 29.1975 5.61336 31.8701 8.33333H26.6668C26.2248 8.33333 25.8008 8.50893 25.4883 8.82149C25.1757 9.13405 25.0001 9.55797 25.0001 10C25.0001 10.442 25.1757 10.866 25.4883 11.1785C25.8008 11.4911 26.2248 11.6667 26.6668 11.6667H33.5718C34.3925 11.6662 35.1795 11.34 35.7598 10.7597C36.3401 10.1793 36.6663 9.39238 36.6668 8.57167V1.66667C36.6668 1.22464 36.4912 0.800716 36.1786 0.488155C35.8661 0.175595 35.4422 0 35.0001 0C34.5581 0 34.1342 0.175595 33.8216 0.488155C33.509 0.800716 33.3335 1.22464 33.3335 1.66667V5.13C29.9812 2.13455 25.7166 0.357473 21.2292 0.0861855C16.7419 -0.185102 12.2942 1.06526 8.60554 3.63505C4.91688 6.20484 2.20294 9.94379 0.902638 14.2472C-0.397662 18.5506 -0.208281 23.1668 1.44015 27.3492C3.08858 31.5317 6.09967 35.0357 9.98643 37.2947C13.8732 39.5537 18.4083 40.4356 22.8584 39.7976C27.3085 39.1597 31.4132 37.0393 34.5088 33.7793C37.6044 30.5193 39.5098 26.3104 39.9168 21.8333C39.9383 21.6012 39.9113 21.3672 39.8373 21.1461C39.7634 20.9251 39.6443 20.7218 39.4875 20.5494C39.3307 20.3769 39.1397 20.239 38.9267 20.1444C38.7136 20.0498 38.4832 20.0006 38.2501 20C37.8435 19.9951 37.4497 20.1417 37.1453 20.4113C36.8409 20.6809 36.6477 21.0541 36.6035 21.4583Z" fill="#FF594C"/>
</g>
<defs>
<clipPath id="clip0_606_526">
<rect width="40" height="40" fill="white"/>
</clipPath>
</defs>
</svg>
