<svg width="16" height="16" viewBox="0 0 16 16" fill="none" xmlns="http://www.w3.org/2000/svg">
<g clip-path="url(#clip0_263_8240)">
<path d="M9.9518 6H9.9998C11.1025 6 11.9998 5.10267 11.9998 4V2C11.9998 0.897333 11.1025 0 9.9998 0H5.9998C4.89713 0 3.9998 0.897333 3.9998 2V4C3.9998 5.10267 4.89713 6 5.9998 6H6.13446L7.35713 7.078C7.55046 7.24867 7.79246 7.334 8.03446 7.334C8.27313 7.334 8.5118 7.25 8.6998 7.08333L9.9518 6.00067V6ZM3.66646 12C4.95313 12 5.9998 10.9533 5.9998 9.66667C5.9998 8.38 4.95313 7.33333 3.66646 7.33333C2.3798 7.33333 1.33313 8.38 1.33313 9.66667C1.33313 10.9533 2.3798 12 3.66646 12ZM9.9998 9.66667C9.9998 10.9533 11.0465 12 12.3331 12C13.6198 12 14.6665 10.9533 14.6665 9.66667C14.6665 8.38 13.6198 7.33333 12.3331 7.33333C11.0465 7.33333 9.9998 8.38 9.9998 9.66667ZM3.66646 12.6667C2.0438 12.6667 0.587797 13.644 0.0417969 15.0993C-0.0348698 15.304 -0.00620312 15.5333 0.117797 15.7133C0.24313 15.8933 0.44713 16 0.665797 16H6.6658C6.88446 16 7.08913 15.8927 7.2138 15.7133C7.33846 15.5333 7.36646 15.304 7.2898 15.0993C6.74446 13.644 5.2878 12.6667 3.66513 12.6667H3.66646ZM15.9578 15.0993C15.4125 13.644 13.9558 12.6667 12.3331 12.6667C10.7105 12.6667 9.25446 13.644 8.70846 15.0993C8.6318 15.304 8.66046 15.5333 8.78446 15.7133C8.9098 15.8933 9.1138 16 9.33246 16H15.3325C15.5511 16 15.7558 15.8927 15.8805 15.7133C16.0051 15.5333 16.0331 15.304 15.9565 15.0993H15.9578Z" fill="#FF594C"/>
</g>
<defs>
<clipPath id="clip0_263_8240">
<rect width="16" height="16" fill="white"/>
</clipPath>
</defs>
</svg>
