<svg width="35" height="35" viewBox="0 0 35 35" fill="none" xmlns="http://www.w3.org/2000/svg">
<mask id="path-1-inside-1_507_699" fill="white">
<path fill-rule="evenodd" clip-rule="evenodd" d="M31.2763 24.2007L31.9839 22.2587C32.0224 22.1534 32.0303 22.0394 32.0069 21.9297C31.9834 21.8201 31.9294 21.7193 31.8512 21.639C31.773 21.5586 31.6737 21.502 31.5647 21.4756C31.4557 21.4492 31.3415 21.4541 31.2352 21.4898L29.6813 22.0072L28.7097 21.5214C28.6073 21.4708 28.4925 21.4506 28.379 21.463C28.2655 21.4755 28.1579 21.5201 28.0689 21.5917C27.9798 21.6635 27.9133 21.7594 27.8774 21.868C27.8415 21.9765 27.8376 22.0932 27.8662 22.2039L28.3472 24.0696C26.568 24.6794 25.1696 26.4789 24.5795 28.434L25.4307 13.1138H26.2264C26.3845 13.1138 26.5361 13.051 26.6479 12.9392C26.7597 12.8274 26.8225 12.6758 26.8225 12.5177C26.8225 12.3596 26.7597 12.208 26.6479 12.0962C26.5361 11.9844 26.3845 11.9216 26.2264 11.9216H24.561C24.3452 9.39967 22.9576 6.75967 20.9035 5.76483L21.828 3.83415C21.8784 3.72852 21.8967 3.61042 21.8806 3.4945C21.8644 3.37859 21.8147 3.26994 21.7374 3.18205C21.6601 3.09416 21.5585 3.03108 21.4455 3.00075C21.3324 2.97042 21.2129 2.97418 21.102 3.01157L19.5021 3.54446L17.9029 3.01157C17.7952 2.97611 17.6796 2.97205 17.5697 2.99985C17.4597 3.02765 17.36 3.08617 17.2821 3.16857C17.2042 3.25097 17.1514 3.35385 17.1298 3.46516C17.1082 3.57648 17.1187 3.69165 17.1602 3.79719L17.8582 5.54726C16.5707 5.92815 15.3404 6.86577 14.3861 8.2266L14.305 8.21587V5.96093C14.3052 5.84628 14.2724 5.734 14.2103 5.63758C14.1483 5.54115 14.0598 5.46468 13.9554 5.41734C13.8509 5.37001 13.7351 5.35383 13.6217 5.37074C13.5083 5.38765 13.4022 5.43694 13.3161 5.51269L12.1252 6.557H10.5611C10.4486 6.55701 10.3385 6.58881 10.2434 6.64873C10.1482 6.70865 10.072 6.79426 10.0234 6.89566C9.97489 6.99707 9.95601 7.11014 9.96898 7.22182C9.98194 7.3335 10.0262 7.43923 10.0967 7.52681L11.4146 9.16303C10.6612 9.81454 10.0538 10.7653 9.66934 11.9216H8.34427C8.18618 11.9216 8.03457 11.9844 7.92278 12.0962C7.811 12.208 7.7482 12.3596 7.7482 12.5177C7.7482 12.6758 7.811 12.8274 7.92278 12.9392C8.03457 13.051 8.18618 13.1138 8.34427 13.1138H8.80503L9.23182 20.7995C8.5368 20.4693 7.83701 20.2571 7.15213 20.1665V17.2863C7.152 17.1805 7.12375 17.0767 7.07026 16.9855C7.01678 16.8943 6.93999 16.8189 6.84777 16.7672C6.75555 16.7154 6.65122 16.6891 6.54549 16.691C6.43975 16.6929 6.33642 16.7229 6.2461 16.7778L4.43285 17.8824H2.81213C2.70631 17.8823 2.60238 17.9104 2.51104 17.9639C2.4197 18.0173 2.34426 18.0941 2.29247 18.1864C2.24068 18.2787 2.21442 18.3831 2.21639 18.4889C2.21836 18.5947 2.24849 18.6981 2.30368 18.7884L3.62279 20.9509C2.62556 21.6084 1.75231 22.6319 1.09365 23.9611C-0.0913372 26.3531 -0.335727 29.2012 0.470162 31.2171C1.81252 34.5724 3.99414 34.5724 8.77284 34.5724C9.24314 34.5724 9.7045 34.5152 10.1528 34.4102C10.2632 34.5143 10.4093 34.5723 10.5611 34.5724H23.6746C23.827 34.5725 23.9736 34.5142 24.0844 34.4095C24.1951 34.3049 24.2616 34.1618 24.2701 34.0097L24.4078 31.53C24.766 32.9731 25.9838 34.5724 29.6354 34.5724C34.3032 34.5724 35 31.958 35 30.3999C35 27.9452 33.4639 25.1699 31.2763 24.2007ZM19.3138 4.73779C19.4362 4.77891 19.5687 4.77891 19.6911 4.73779L20.1459 4.58639L19.7555 5.40241C19.6917 5.39228 19.6297 5.37499 19.5647 5.36844C19.3996 5.35056 19.2327 5.35771 19.0664 5.36009L18.7427 4.54824L19.3138 4.73779ZM19.4395 6.55343C21.561 6.77815 23.1137 9.44318 23.3611 11.9216H19.2959C18.459 10.4416 17.1107 9.14336 15.6247 8.5449C16.551 7.38972 17.9231 6.39785 19.4395 6.55343ZM11.8063 7.74915H12.3493C12.4938 7.74929 12.6335 7.69673 12.7421 7.60132L13.1128 7.27646V8.28561C12.9954 8.31184 12.8774 8.33628 12.7612 8.37443C12.6455 8.41198 12.5352 8.46622 12.4238 8.51629L11.8063 7.74915ZM13.1301 9.50816C14.727 8.98421 16.6952 10.2455 17.8844 11.9216H10.9348C11.426 10.6902 12.2116 9.80738 13.1301 9.50816ZM3.87433 19.0745H4.60034C4.71002 19.0745 4.81731 19.0441 4.9109 18.9875L5.95998 18.3479V20.1349C5.64834 20.1574 5.33945 20.2087 5.03726 20.2881C4.91924 20.3209 4.8048 20.368 4.68916 20.4103L3.87433 19.0745ZM1.57707 30.7748C0.901718 29.0855 1.13657 26.5606 2.16181 24.4904C2.76325 23.2768 3.55006 22.3642 4.43523 21.8361L4.50318 21.8445C4.61257 21.8447 4.71988 21.8146 4.81314 21.7574C4.89056 21.7082 4.95529 21.6414 5.00209 21.5625C5.11892 21.516 5.23635 21.4701 5.35557 21.4373C5.62359 21.3659 5.89862 21.3239 6.17576 21.3122C6.28098 21.4048 6.41586 21.4568 6.55605 21.4588C6.6844 21.4561 6.80824 21.411 6.90833 21.3306C7.68621 21.4189 8.50163 21.7109 9.30931 22.1872L9.92267 33.2258C9.54705 33.3236 9.16095 33.3755 8.77284 33.3802C3.79505 33.3802 2.58145 33.2849 1.57707 30.7748ZM23.1108 33.3802H11.1249L10.0008 13.146L10.0925 13.1579C10.1662 13.1569 10.239 13.1419 10.3071 13.1138H24.2367L23.1108 33.3802ZM29.3469 23.1731L29.3689 23.1844C29.439 23.2195 29.5153 23.2404 29.5934 23.2458C29.6716 23.2513 29.7501 23.2411 29.8243 23.216L30.4412 23.011L30.1253 23.8783C29.9629 23.8563 29.7993 23.8445 29.6354 23.8431L29.5221 23.8514L29.3469 23.1731ZM29.6354 33.3802C25.4629 33.3802 25.4629 31.1366 25.4629 30.3999C25.4629 27.9846 27.3882 25.0352 29.6354 25.0352C31.8825 25.0352 33.8079 27.9846 33.8079 30.3999C33.8079 31.1366 33.8079 33.3802 29.6354 33.3802Z"/>
</mask>
<path fill-rule="evenodd" clip-rule="evenodd" d="M31.2763 24.2007L31.9839 22.2587C32.0224 22.1534 32.0303 22.0394 32.0069 21.9297C31.9834 21.8201 31.9294 21.7193 31.8512 21.639C31.773 21.5586 31.6737 21.502 31.5647 21.4756C31.4557 21.4492 31.3415 21.4541 31.2352 21.4898L29.6813 22.0072L28.7097 21.5214C28.6073 21.4708 28.4925 21.4506 28.379 21.463C28.2655 21.4755 28.1579 21.5201 28.0689 21.5917C27.9798 21.6635 27.9133 21.7594 27.8774 21.868C27.8415 21.9765 27.8376 22.0932 27.8662 22.2039L28.3472 24.0696C26.568 24.6794 25.1696 26.4789 24.5795 28.434L25.4307 13.1138H26.2264C26.3845 13.1138 26.5361 13.051 26.6479 12.9392C26.7597 12.8274 26.8225 12.6758 26.8225 12.5177C26.8225 12.3596 26.7597 12.208 26.6479 12.0962C26.5361 11.9844 26.3845 11.9216 26.2264 11.9216H24.561C24.3452 9.39967 22.9576 6.75967 20.9035 5.76483L21.828 3.83415C21.8784 3.72852 21.8967 3.61042 21.8806 3.4945C21.8644 3.37859 21.8147 3.26994 21.7374 3.18205C21.6601 3.09416 21.5585 3.03108 21.4455 3.00075C21.3324 2.97042 21.2129 2.97418 21.102 3.01157L19.5021 3.54446L17.9029 3.01157C17.7952 2.97611 17.6796 2.97205 17.5697 2.99985C17.4597 3.02765 17.36 3.08617 17.2821 3.16857C17.2042 3.25097 17.1514 3.35385 17.1298 3.46516C17.1082 3.57648 17.1187 3.69165 17.1602 3.79719L17.8582 5.54726C16.5707 5.92815 15.3404 6.86577 14.3861 8.2266L14.305 8.21587V5.96093C14.3052 5.84628 14.2724 5.734 14.2103 5.63758C14.1483 5.54115 14.0598 5.46468 13.9554 5.41734C13.8509 5.37001 13.7351 5.35383 13.6217 5.37074C13.5083 5.38765 13.4022 5.43694 13.3161 5.51269L12.1252 6.557H10.5611C10.4486 6.55701 10.3385 6.58881 10.2434 6.64873C10.1482 6.70865 10.072 6.79426 10.0234 6.89566C9.97489 6.99707 9.95601 7.11014 9.96898 7.22182C9.98194 7.3335 10.0262 7.43923 10.0967 7.52681L11.4146 9.16303C10.6612 9.81454 10.0538 10.7653 9.66934 11.9216H8.34427C8.18618 11.9216 8.03457 11.9844 7.92278 12.0962C7.811 12.208 7.7482 12.3596 7.7482 12.5177C7.7482 12.6758 7.811 12.8274 7.92278 12.9392C8.03457 13.051 8.18618 13.1138 8.34427 13.1138H8.80503L9.23182 20.7995C8.5368 20.4693 7.83701 20.2571 7.15213 20.1665V17.2863C7.152 17.1805 7.12375 17.0767 7.07026 16.9855C7.01678 16.8943 6.93999 16.8189 6.84777 16.7672C6.75555 16.7154 6.65122 16.6891 6.54549 16.691C6.43975 16.6929 6.33642 16.7229 6.2461 16.7778L4.43285 17.8824H2.81213C2.70631 17.8823 2.60238 17.9104 2.51104 17.9639C2.4197 18.0173 2.34426 18.0941 2.29247 18.1864C2.24068 18.2787 2.21442 18.3831 2.21639 18.4889C2.21836 18.5947 2.24849 18.6981 2.30368 18.7884L3.62279 20.9509C2.62556 21.6084 1.75231 22.6319 1.09365 23.9611C-0.0913372 26.3531 -0.335727 29.2012 0.470162 31.2171C1.81252 34.5724 3.99414 34.5724 8.77284 34.5724C9.24314 34.5724 9.7045 34.5152 10.1528 34.4102C10.2632 34.5143 10.4093 34.5723 10.5611 34.5724H23.6746C23.827 34.5725 23.9736 34.5142 24.0844 34.4095C24.1951 34.3049 24.2616 34.1618 24.2701 34.0097L24.4078 31.53C24.766 32.9731 25.9838 34.5724 29.6354 34.5724C34.3032 34.5724 35 31.958 35 30.3999C35 27.9452 33.4639 25.1699 31.2763 24.2007ZM19.3138 4.73779C19.4362 4.77891 19.5687 4.77891 19.6911 4.73779L20.1459 4.58639L19.7555 5.40241C19.6917 5.39228 19.6297 5.37499 19.5647 5.36844C19.3996 5.35056 19.2327 5.35771 19.0664 5.36009L18.7427 4.54824L19.3138 4.73779ZM19.4395 6.55343C21.561 6.77815 23.1137 9.44318 23.3611 11.9216H19.2959C18.459 10.4416 17.1107 9.14336 15.6247 8.5449C16.551 7.38972 17.9231 6.39785 19.4395 6.55343ZM11.8063 7.74915H12.3493C12.4938 7.74929 12.6335 7.69673 12.7421 7.60132L13.1128 7.27646V8.28561C12.9954 8.31184 12.8774 8.33628 12.7612 8.37443C12.6455 8.41198 12.5352 8.46622 12.4238 8.51629L11.8063 7.74915ZM13.1301 9.50816C14.727 8.98421 16.6952 10.2455 17.8844 11.9216H10.9348C11.426 10.6902 12.2116 9.80738 13.1301 9.50816ZM3.87433 19.0745H4.60034C4.71002 19.0745 4.81731 19.0441 4.9109 18.9875L5.95998 18.3479V20.1349C5.64834 20.1574 5.33945 20.2087 5.03726 20.2881C4.91924 20.3209 4.8048 20.368 4.68916 20.4103L3.87433 19.0745ZM1.57707 30.7748C0.901718 29.0855 1.13657 26.5606 2.16181 24.4904C2.76325 23.2768 3.55006 22.3642 4.43523 21.8361L4.50318 21.8445C4.61257 21.8447 4.71988 21.8146 4.81314 21.7574C4.89056 21.7082 4.95529 21.6414 5.00209 21.5625C5.11892 21.516 5.23635 21.4701 5.35557 21.4373C5.62359 21.3659 5.89862 21.3239 6.17576 21.3122C6.28098 21.4048 6.41586 21.4568 6.55605 21.4588C6.6844 21.4561 6.80824 21.411 6.90833 21.3306C7.68621 21.4189 8.50163 21.7109 9.30931 22.1872L9.92267 33.2258C9.54705 33.3236 9.16095 33.3755 8.77284 33.3802C3.79505 33.3802 2.58145 33.2849 1.57707 30.7748ZM23.1108 33.3802H11.1249L10.0008 13.146L10.0925 13.1579C10.1662 13.1569 10.239 13.1419 10.3071 13.1138H24.2367L23.1108 33.3802ZM29.3469 23.1731L29.3689 23.1844C29.439 23.2195 29.5153 23.2404 29.5934 23.2458C29.6716 23.2513 29.7501 23.2411 29.8243 23.216L30.4412 23.011L30.1253 23.8783C29.9629 23.8563 29.7993 23.8445 29.6354 23.8431L29.5221 23.8514L29.3469 23.1731ZM29.6354 33.3802C25.4629 33.3802 25.4629 31.1366 25.4629 30.3999C25.4629 27.9846 27.3882 25.0352 29.6354 25.0352C31.8825 25.0352 33.8079 27.9846 33.8079 30.3999C33.8079 31.1366 33.8079 33.3802 29.6354 33.3802Z" fill="#FBFFF8" stroke="#F6F2F2" stroke-width="20" stroke-dasharray="20 40 60 80" mask="url(#path-1-inside-1_507_699)"/>
<path fill-rule="evenodd" clip-rule="evenodd" d="M21.3237 16.6915C20.9905 16.6819 20.714 16.9251 20.6955 17.253L20.0994 27.9822C20.095 28.0604 20.106 28.1387 20.1319 28.2126C20.1577 28.2865 20.1979 28.3546 20.2501 28.413C20.3024 28.4713 20.3656 28.5188 20.4361 28.5527C20.5067 28.5866 20.5833 28.6062 20.6615 28.6105L20.6949 28.6117C20.8471 28.6116 20.9936 28.5533 21.1042 28.4487C21.2148 28.344 21.2812 28.201 21.2898 28.049L21.8858 17.3197C21.8902 17.2416 21.8791 17.1633 21.8532 17.0894C21.8273 17.0156 21.7871 16.9475 21.7349 16.8892C21.6827 16.8308 21.6195 16.7833 21.549 16.7494C21.4784 16.7155 21.4019 16.6958 21.3237 16.6915ZM12.9126 16.6915C12.8344 16.6957 12.7578 16.7154 12.6872 16.7493C12.6166 16.7832 12.5534 16.8306 12.5012 16.889C12.449 16.9474 12.4088 17.0154 12.3829 17.0893C12.3571 17.1633 12.346 17.2415 12.3505 17.3197L12.9465 28.049C12.9638 28.3661 13.2267 28.6117 13.5408 28.6117L13.5748 28.6105C13.653 28.6062 13.7295 28.5865 13.8001 28.5525C13.8706 28.5186 13.9338 28.4711 13.986 28.4128C14.0382 28.3545 14.0784 28.2864 14.1043 28.2125C14.1302 28.1387 14.1412 28.0604 14.1369 27.9822L13.5408 17.253C13.5223 16.9251 13.2499 16.6843 12.9126 16.6915ZM17.2853 16.6903C17.1273 16.6903 16.9756 16.7531 16.8639 16.8648C16.7521 16.9766 16.6893 17.1282 16.6893 17.2863V28.0156C16.6893 28.1737 16.7521 28.3253 16.8639 28.4371C16.9756 28.5489 17.1273 28.6117 17.2853 28.6117C17.4434 28.6117 17.595 28.5489 17.7068 28.4371C17.8186 28.3253 17.8814 28.1737 17.8814 28.0156V17.2863C17.8814 17.1282 17.8186 16.9766 17.7068 16.8648C17.595 16.7531 17.4434 16.6903 17.2853 16.6903ZM4.60035 12.5178C4.75765 12.5178 4.90854 12.4554 5.01994 12.3443C5.13134 12.2333 5.19416 12.0826 5.19463 11.9253C5.19642 11.5974 4.93176 11.3292 4.60392 11.3256C4.30469 11.322 2.81213 11.2201 2.81213 9.5374C2.81213 8.71363 3.11851 8.56044 3.67465 8.28267C4.31721 7.9608 5.19642 7.52149 5.19642 5.96097C5.19642 4.75154 4.64684 3.81631 3.64961 3.32932C3.50757 3.25992 3.34378 3.24979 3.19426 3.30115C3.04475 3.35252 2.92177 3.46117 2.85237 3.60321C2.78297 3.74525 2.77283 3.90905 2.8242 4.05856C2.87556 4.20807 2.98422 4.33106 3.12626 4.40046C3.71697 4.68896 4.00427 5.19979 4.00427 5.96097C4.00427 6.78475 3.69789 6.93794 3.14176 7.21571C2.49979 7.53758 1.61999 7.97689 1.61999 9.5374C1.61999 11.8949 3.56974 12.5178 4.60035 12.5178ZM32.0196 16.4024C31.8616 16.4024 31.7099 16.4652 31.5982 16.5769C31.4864 16.6887 31.4236 16.8403 31.4236 16.9984C31.4236 17.1565 31.4864 17.3081 31.5982 17.4199C31.7099 17.5317 31.8616 17.5945 32.0196 17.5945C33.0508 17.5945 35 16.9716 35 14.6141C35 13.053 34.1208 12.6137 33.4782 12.2924C32.9221 12.0141 32.6157 11.8609 32.6157 11.0377C32.6157 10.2759 32.903 9.7657 33.4937 9.47661C33.5664 9.44371 33.6317 9.39657 33.6858 9.33797C33.7399 9.27937 33.7817 9.2105 33.8087 9.13546C33.8358 9.06041 33.8474 8.9807 33.8431 8.90106C33.8387 8.82141 33.8184 8.74346 33.7834 8.6718C33.7484 8.60014 33.6993 8.53624 33.6391 8.48389C33.579 8.43154 33.5089 8.39179 33.4331 8.36701C33.3573 8.34223 33.2772 8.33292 33.1978 8.33963C33.1183 8.34634 33.041 8.36893 32.9704 8.40606C31.9732 8.89305 31.4236 9.82769 31.4236 11.0377C31.4236 12.5982 32.3034 13.0375 32.9453 13.3588C33.5015 13.6372 33.8079 13.7904 33.8079 14.6141C33.8079 16.2969 32.3159 16.3988 32.0196 16.4024ZM27.8471 8.05736C27.6891 8.05736 27.5374 8.12016 27.4257 8.23194C27.3139 8.34373 27.2511 8.49534 27.2511 8.65343C27.2511 8.81152 27.3139 8.96313 27.4257 9.07492C27.5374 9.1867 27.6891 9.2495 27.8471 9.2495C28.8783 9.2495 30.8275 8.62661 30.8275 6.26914C30.8275 4.70803 29.9483 4.26873 29.3063 3.94744C28.7496 3.66908 28.4432 3.51589 28.4432 2.69271C28.4432 1.93093 28.7305 1.4207 29.3212 1.1316C29.3916 1.09727 29.4544 1.04942 29.5062 0.990775C29.5581 0.932133 29.5978 0.863852 29.6232 0.789836C29.6486 0.715821 29.6592 0.637523 29.6543 0.55942C29.6495 0.481316 29.6292 0.404938 29.5948 0.334654C29.5606 0.264221 29.5128 0.201243 29.4542 0.149338C29.3956 0.0974335 29.3273 0.0576251 29.2532 0.0322009C29.1792 0.0067766 29.1008 -0.00376228 29.0227 0.00118976C28.9445 0.00614181 28.8681 0.0264872 28.7979 0.0610567C27.8006 0.548047 27.2511 1.48269 27.2511 2.69271C27.2511 4.25323 28.1309 4.69253 28.7728 5.01382C29.329 5.29218 29.6354 5.44537 29.6354 6.26914C29.6354 7.95185 28.1434 8.05378 27.8471 8.05736Z" fill="#FBFFF8"/>
</svg>
