<svg width="32" height="32" viewBox="0 0 32 32" fill="none" xmlns="http://www.w3.org/2000/svg">
<path d="M28 5.33331H23.8667C23.2288 2.23144 20.5001 0.004 17.3333 0H14.6666C11.4998 0.004 8.77119 2.23144 8.13331 5.33331H4C3.26362 5.33331 2.66669 5.93025 2.66669 6.66663C2.66669 7.403 3.26362 8 4 8H5.33331V25.3333C5.33775 29.0134 8.31994 31.9956 12 32H20C23.6801 31.9956 26.6622 29.0134 26.6667 25.3333V8H28C28.7364 8 29.3333 7.40306 29.3333 6.66669C29.3333 5.93031 28.7364 5.33331 28 5.33331ZM14.6667 22.6667C14.6667 23.4031 14.0697 24 13.3334 24C12.5969 24 12 23.4031 12 22.6667V14.6667C12 13.9303 12.5969 13.3334 13.3333 13.3334C14.0697 13.3334 14.6666 13.9303 14.6666 14.6667V22.6667H14.6667ZM20 22.6667C20 23.4031 19.4031 24 18.6667 24C17.9303 24 17.3334 23.4031 17.3334 22.6667V14.6667C17.3334 13.9303 17.9303 13.3334 18.6667 13.3334C19.4031 13.3334 20 13.9303 20 14.6667V22.6667ZM10.8947 5.33331C11.4618 3.73637 12.9721 2.66869 14.6667 2.66663H17.3334C19.028 2.66869 20.5382 3.73637 21.1054 5.33331H10.8947Z" fill="white"/>
</svg>
