<svg width="22" height="22" viewBox="0 0 22 22" fill="none" xmlns="http://www.w3.org/2000/svg">
<path d="M11 22C8.82441 22 6.69767 21.3549 4.88873 20.1462C3.07979 18.9375 1.66989 17.2195 0.83733 15.2095C0.00476615 13.1995 -0.213071 10.9878 0.211367 8.85401C0.635804 6.72021 1.68345 4.7602 3.22183 3.22182C4.76021 1.68345 6.72022 0.635799 8.85401 0.211363C10.9878 -0.213076 13.1995 0.00476074 15.2095 0.837326C17.2195 1.66989 18.9375 3.07979 20.1462 4.88873C21.3549 6.69767 22 8.8244 22 11C21.9968 13.9164 20.8369 16.7125 18.7747 18.7747C16.7125 20.8369 13.9164 21.9968 11 22ZM11 7.33333C10.329 7.33264 9.681 7.57788 9.17859 8.02267C8.87884 8.28942 8.59467 8.54883 8.40859 8.73492L5.775 11.3236C5.61293 11.4961 5.52387 11.7246 5.52648 11.9613C5.52908 12.198 5.62314 12.4245 5.78897 12.5934C5.9548 12.7623 6.17954 12.8605 6.41614 12.8675C6.65275 12.8745 6.88287 12.7896 7.05834 12.6307L9.69834 10.0375C9.87067 9.86608 10.1273 9.63325 10.3941 9.39583C10.5615 9.24812 10.7772 9.16662 11.0005 9.16662C11.2238 9.16662 11.4394 9.24812 11.6068 9.39583C11.8727 9.63233 12.1293 9.86517 12.2962 10.0311L14.9417 12.6307C15.0262 12.7208 15.1281 12.7927 15.2412 12.8424C15.3542 12.8921 15.4762 12.9184 15.5997 12.9197C15.7232 12.9211 15.8456 12.8975 15.9598 12.8503C16.0739 12.8032 16.1774 12.7334 16.2639 12.6453C16.3504 12.5572 16.4182 12.4525 16.4633 12.3375C16.5083 12.2225 16.5297 12.0996 16.526 11.9762C16.5224 11.8527 16.4939 11.7313 16.4421 11.6191C16.3904 11.507 16.3166 11.4065 16.225 11.3236L13.5859 8.73033C13.4026 8.547 13.1212 8.29033 12.8223 8.02542C12.3202 7.57921 11.6717 7.33292 11 7.33333Z" fill="#FF594C"/>
</svg>
