<svg width="36" height="35" viewBox="0 0 36 35" fill="none" xmlns="http://www.w3.org/2000/svg">
<path d="M26.6879 9.81684C26.0214 6.95077 24.3249 4.42951 21.9211 2.73232C19.5173 1.03513 16.5737 0.28032 13.6498 0.611368C10.726 0.942416 8.02563 2.33624 6.06213 4.52791C4.09863 6.71957 3.00885 9.55629 2.99994 12.4988C2.99775 14.4165 3.46101 16.3061 4.34994 18.0053C2.73163 18.8726 1.44954 20.2557 0.70737 21.935C-0.0348012 23.6144 -0.194482 25.4936 0.253699 27.274C0.701879 29.0545 1.73221 30.6342 3.181 31.762C4.62978 32.8898 6.41392 33.5011 8.24994 33.4988H17.9999V30.4988H8.24994C6.97258 30.5027 5.73787 30.0394 4.77822 29.1964C3.81857 28.3533 3.20017 27.1886 3.03941 25.9214C2.87866 24.6541 3.18664 23.3719 3.90539 22.3159C4.62414 21.2599 5.70408 20.5031 6.94194 20.1878L9.09744 19.6313L7.77294 17.8418C6.62025 16.2992 5.99821 14.4246 5.99994 12.4988C6.01705 10.2278 6.89212 8.04723 8.44965 6.39438C10.0072 4.74152 12.132 3.73862 14.398 3.58679C16.664 3.43496 18.9037 4.14544 20.6678 5.57574C22.4319 7.00604 23.59 9.0504 23.9099 11.2988L24.0599 12.4358L25.1954 12.5858C27.1994 12.8485 29.0563 13.7791 30.4661 15.2274C31.8759 16.6756 32.7562 18.5569 32.9648 20.5672C33.1734 22.5775 32.6982 24.5994 31.6158 26.3063C30.5335 28.0132 28.9073 29.3053 26.9999 29.9738V33.1043C29.6015 32.4353 31.9028 30.9116 33.5345 28.7778C35.1662 26.644 36.0336 24.0239 35.9977 21.338C35.9617 18.652 35.0243 16.0561 33.336 13.9668C31.6477 11.8774 29.3064 10.4159 26.6879 9.81684Z" fill="#FF594C"/>
<path d="M27.4395 25.56L29.5605 23.439L24.621 18.4995C24.0584 17.937 23.2954 17.6211 22.5 17.6211C21.7045 17.6211 20.9415 17.937 20.379 18.4995L15.4395 23.439L17.5605 25.56L21 22.1205V34.9995H24V22.1205L27.4395 25.56Z" fill="#FF594C"/>
</svg>
